<?xml version="1.0" encoding="UTF-8" standalone="no"?>
<!-- Created with Inkscape (http://www.inkscape.org/) -->
<svg
   xmlns:svg="http://www.w3.org/2000/svg"
   xmlns="http://www.w3.org/2000/svg"
   version="1.0"
   width="579pt"
   height="579pt"
   viewBox="0 0 579 579">
  <path
     d="M 25.301165,289.67172 289.32987,553.70044 553.40261,289.6277 C 465.35022,201.6757 377.47182,113.54942 289.3739,25.643024 L 25.301165,289.67172 z"
     style="fill:#ffffff;stroke:none" />
  <path
     d="M 147.65941,148.01233 6,289.67173 147.66886,431.34059 289.32827,573 431.01602,431.31224 572.70378,289.62449 431.06327,147.98398 C 353.16571,70.086424 289.40386,6.34347 289.37551,6.34347 c -0.0284,0 -63.79965,63.752403 -141.7161,141.66886 z M 408.62189,170.42535 527.82103,289.62449 408.57465,408.87087 289.31882,528.1267 170.12913,408.87087 50.948893,289.60559 170.13858,170.41591 C 235.69574,104.85874 289.34716,51.22622 289.37551,51.22622 c 0.0283,0 53.68922,53.64197 119.24638,119.19913 z"
     style="fill:#ff0000;stroke:none" />
  <path
     d="m 437.625,288 c -0.96852,-0.003 -1.94831,0.044 -2.5625,0.15625 -1.19294,0.22442 -231.26696,61.9936 -232.09375,62.3125 -6.51981,2.56304 -10.8959,9.67009 -12.21875,19.875 -0.27166,2.06698 -0.39936,5.8405 -0.28125,8.25 0.18898,3.90952 0.69954,7.2391 1.65625,11.125 3.89771,15.82707 13.74562,28.26275 24.28125,30.625 1.22837,0.27166 4.11537,0.34941 5.34375,0.125 1.03939,-0.17716 229.02875,-61.31076 231.34375,-62.03125 4.4056,-1.3701 7.72314,-4.44552 10.15625,-9.40625 1.3583,-2.75203 2.17814,-5.41479 2.875,-9.3125 0.55513,-3.07092 1.0327,-4.39071 2.34375,-6.375 1.59453,-2.42131 4.35697,-4.48571 7.15625,-5.3125 0.46064,-0.12992 11.84004,-3.17881 25.28125,-6.78125 13.4412,-3.61424 24.7276,-6.70964 25.09375,-6.875 5.43318,-2.49216 7.41122,-10.42801 4.28125,-17.125 -1.72444,-3.67329 -4.8491,-6.38508 -8.15625,-7.09375 -1.12207,-0.23623 -2.83488,-0.20916 -3.96875,0.0625 -0.5197,0.12992 -11.71309,3.12469 -24.90625,6.65625 -13.18136,3.54337 -24.27066,6.51108 -24.625,6.59375 -0.4252,0.1063 -1.36045,0.15625 -2.71875,0.15625 -2.26776,-0.0118 -3.138,-0.16214 -4.96875,-0.90625 -2.29139,-0.9449 -3.73567,-2.09591 -6.0625,-4.8125 -3.48431,-4.06308 -6.62887,-6.62768 -10.125,-8.28125 -1.50002,-0.69686 -3.1139,-1.22071 -4.53125,-1.46875 -0.64962,-0.11221 -1.62523,-0.1533 -2.59375,-0.15625 z"
     transform="scale(0.8,0.8)"
     style="fill:#000000;stroke:none" />
</svg>
