<?xml version="1.0" encoding="UTF-8" standalone="no"?>
<!-- Created with Inkscape (http://www.inkscape.org/) -->
<svg
   xmlns:svg="http://www.w3.org/2000/svg"
   xmlns="http://www.w3.org/2000/svg"
   version="1.0"
   width="579pt"
   height="579pt"
   viewBox="0 0 579 579">
  <path
     d="M 25.301165,289.67172 289.32987,553.70044 553.40261,289.6277 C 465.35022,201.6757 377.47182,113.54942 289.3739,25.643024 L 25.301165,289.67172 z"
     style="fill:#ffffff;stroke:none" />
  <path
     d="M 147.65941,148.01233 6,289.67173 147.66886,431.34059 289.32827,573 431.01602,431.31224 572.70378,289.62449 431.06327,147.98398 C 353.16571,70.086424 289.40386,6.34347 289.37551,6.34347 c -0.0284,0 -63.79965,63.752403 -141.7161,141.66886 z M 408.62189,170.42535 527.82103,289.62449 408.5652,408.88032 289.31882,528.1267 170.12913,408.87087 50.939444,289.61504 170.13858,170.41591 C 235.69574,104.85874 289.34716,51.22622 289.37551,51.22622 c 0.0283,0 53.68922,53.64197 119.24638,119.19913 z"
     style="fill:#ff0000;stroke:none" />
  <path
     d="m 358.6875,105.6875 c -11.0423,11.95104 -0.0346,61.12295 -22.84375,107.21875 -11.82513,-12.61346 -16.56692,-36.26863 -29.96875,-48.09375 7.07046,18.13186 -12.62633,16.55766 -5.53125,79.625 -10.70725,-2.67681 -11.03725,-7.08846 -34.6875,-35.46875 4.40353,27.52204 1.60663,44.94217 7.125,75.6875 0,0 -5.70036,-1.20109 -33.125,-21.3125 8.90084,29.98175 -6.64874,93.11169 28.78125,137.75 L 268.3125,401 c 2.72662,40.394 31.19994,73.76178 69.125,83.84375 l -68.53125,0 0,29.03125 191.125,0 0,-29.03125 -74.53125,0 c 34.31242,-9.12298 60.86623,-37.31555 67.625,-72.53125 l 0,-0.0312 c 9.39301,-15.01304 51.40412,-63.61206 19.09375,-141.8125 0,0 -9.4793,17.37784 -26.8125,22.0625 0,0 22.20763,-37.01824 3.9375,-67 0,0 -5.35488,21.90682 -23.625,22.84375 0,0 8.89287,-46.72414 -15,-76.46875 -8.67176,19.70855 5.19251,27.87556 -23.65625,44.15625 -3.94686,-60.72292 -16.54987,-70.95791 -28.375,-110.375 z M 352.375,238.125 c 11.01517,6.77856 18.93899,18.4373 21.34375,40.3125 1.05774,9.62189 4.65443,15.13583 7.28125,24.90625 -6.29922,-1.34256 -12.83332,-2.0625 -19.53125,-2.0625 -8.18497,0 -16.11998,1.04974 -23.6875,3.03125 -1.67751,-31.86822 15.00282,-24.87128 14.59375,-66.1875 z M 312.1875,261 c 0,0 4.40898,27.77921 15.65625,46.53125 -7.92479,3.0634 -15.31997,7.1944 -22.03125,12.1875 -3.69493,-28.7985 4.67257,-35.31053 6.375,-58.71875 z m 97.75,14.1875 c 0,0 4.12977,27.81515 9.75,46.46875 -8.90612,-7.11682 -19.14913,-12.63435 -30.28125,-16.125 4.69142,-9.60066 11.90829,-22.24339 20.53125,-30.34375 z m -141.125,30.75 c 0,0 8.37007,8.44267 30.25,19.28125 -7.67749,6.90282 -14.19535,15.07005 -19.25,24.15625 -3.41197,-11.17507 -8.20021,-28.03871 -11,-43.4375 z m 185.28125,10.25 c 0.73429,10.28004 0.74714,35.28952 -3.9375,48.875 l 0.0312,0.46875 c -4.13898,-12.61932 -10.89159,-24.04796 -19.625,-33.65625 5.63339,-4.50221 15.21199,-11.68192 23.53125,-15.6875 z m -93.4375,10.90625 c 36.83069,10e-6 66.71875,29.91931 66.71875,66.75 0,36.83069 -29.88806,66.71875 -66.71875,66.71875 -36.83068,0 -66.71875,-29.88806 -66.71875,-66.71875 0,-36.83068 29.88806,-66.75 66.71875,-66.75 z"
     transform="scale(0.8,0.8)"
     style="fill:#000000;stroke:none" />
</svg>
