<?xml version="1.0"?>
<svg xmlns="http://www.w3.org/2000/svg" height="724" width="724" viewBox="0 0 735 735">
<path d="m367.5 727.4l360-360-360-360-360 360z" fill="#f00"/>
<path d="m367.5 670.3-302.8-302.8l302.8-302.8 302.8 302.8z" fill="#fff"/>
<path d="m233.3 384.1c-11.1 0-17.9-3.85-21.1-10.13h-79.98v36.56h199.3v-36.56h-72.5c-4.93 6.32-14.54 10.13-25.76 10.13"/><path d="m251.7 370.5c3.25 0 7.91-1.57 11.67-9.1.86-1.71 1.03-3.89 1.22-6.2.1-1.2.26-3.13.54-3.87.36-.25 1.19-.61 1.78-.87 2.21-.97 5.24-2.29 6.83-5.47.89-1.78 1.15-3.54 1.15-5.22 0-1.26-.15-2.47-.29-3.62-.15-1.21-.28-2.37-.28-3.57 0-.41.001-.82.05-1.24.18-2.1 3.87-6.65 7.19-9.58l-5.07-5.77c-1.54 1.35-9.23 8.4-9.78 14.69-.21 2.47.04 4.56.26 6.4.26 2.19.39 3.48-.11 4.48-.35.69-1.77 1.32-3.04 1.87-1.96.86-4.17 1.82-5.4 4.07-1.08 1.99-1.29 4.58-1.5 7.09-.09 1.15-.23 2.9-.45 3.42-.66 1.31-1.35 2.37-2.06 3.16-.48 1.32-1.31 3.21-2.73 5.25v4.08"/><path d="m241.7 365.7l4.39 6.3c2.51-1.75 4.31-3.73 5.61-5.59 1.42-2.03 2.24-3.92 2.73-5.25.18-.5.32-.92.42-1.23.69-2.15.18-4.19-.27-5.98-.47-1.88-.74-3.09-.22-4.23.6-1.34 1.62-2.14 2.91-3.15 1.47-1.15 3.3-2.59 4.44-5 1.42-2.98.59-6.27-.21-9.44-.56-2.23-1.14-4.54-.83-6.3l-7.56-1.34c-.15.82-.21 1.63-.21 2.44 0 2.51.6 4.91 1.16 7.09.31 1.23.76 3 .76 3.9 0 .16-.001.29-.04.39-.34.72-1.04 1.29-2.24 2.24-1.69 1.33-3.79 2.98-5.16 6-.71 1.58-.95 3.11-.95 4.51 0 1.84.41 3.47.73 4.74.15.6.37 1.48.38 1.84-.79 2.42-2.17 5.5-5.81 8"/><path d="m208 350c.51.95.84 1.84 1.06 2.68.76.49 1.88 1.22 2.1 1.58.34.9.02 3.43-.2 5.11-.07.55-.14 1.08-.19 1.6 1.83 1.83 4.71 3.95 6.26 4.73l-2.89 5.79c1.43 2.04 3.1 4.08 4.62 5.75l5.68-5.17c-3.27-3.6-5.57-7.1-6.12-8.64-.001-.07-.001-.14-.001-.24 0-.67.16-1.95.28-2.84.19-1.51.4-3.12.4-4.71 0-1.44-.17-2.87-.67-4.18-1.01-2.64-3.38-4.15-5.27-5.36-1.12-.71-2.65-1.69-2.73-2.31-.02-.16-.03-.31-.03-.47 0-.77.24-1.56.67-2.9.63-1.95 1.46-4.53 1.46-8.3 0-.51-.02-1.04-.05-1.59l-7.67.46c.19 3.2-.42 5.08-1.06 7.1-.6 1.87-1.29 4-.96 6.67.02.13.04.25.06.38 1.78.94 3.86 2.29 5.25 4.87"/><path d="m191.8 334.1c.13 1.5-.11 2.56-.38 3.8-.47 2.11-1.05 4.73.69 8.19 1.55 3.09 4.21 4.42 6.15 5.38 1.57.78 2.48 1.27 2.99 2.19.63 1.16.56 1.96.44 3.29-.14 1.62-.34 3.85 1.07 6.25 2.3 3.92 8.29 8.11 10.84 9.38l.54-1.08 2.89-5.79c-1.56-.78-4.44-2.89-6.26-4.73-.61-.61-1.1-1.19-1.39-1.68-.14-.23-.15-.52-.04-1.67.11-1.24.25-2.94-.28-4.94-.22-.84-.55-1.74-1.06-2.68-1.4-2.58-3.47-3.93-5.26-4.87-.37-.19-.73-.38-1.07-.55-1.64-.81-2.34-1.21-2.7-1.94-.5-1-.44-1.39-.06-3.1.32-1.46.77-3.45.54-6.12-.44-5.07-4.36-9.32-7.52-12.73l-2.33-2.61-5.94 4.86 2.63 2.96c2.36 2.55 5.29 5.73 5.51 8.18"/><path d="m225.8 339.3c0 5.9 1.42 13.83 8.34 13.83 6.91 0 8.74-8.94 8.74-12.6 0-3.23-4.91-16.91-6.1-29.3-1.53-.02-2.81-.46-3.88-1.16-1.07 13.9-7.15 23.86-7.15 29.2"/><path d="m334.1 227.5c-15.1 2.4-84.1 14.8-90.7 16.1-9.81 1.88-12.1-7-16.56-9.12 0 0 6.61 38.83 7 41.72 1.38 10.38-5.72 15.72-5.72 23.48 0 2.81 1.22 8 4.79 10.35 1.07.7 2.35 1.13 3.88 1.16.05 0 .09 0 .14 0 6.72 0 8.16-6.72 8.16-11.84 0-7.92-3.84-12.48-3.84-14.4s1.6-4.16 7.68-5.12c6.08-.96 82.1-14.16 94.1-16.1s20.88-11.76 18.96-21.84c-1.92-10.1-12.72-16.8-27.84-14.4m5.2 28.32c-10.24.64-99.7 9.28-99.7 9.28l-1.92-12.64s88.5-15.36 98.9-17.1c10.4-1.76 17.76 2.4 17.76 8.96 0 6.56-4.8 10.88-15 11.52"/><path d="m498.8 306.2c-2.07 10.68-6.52 20.93-6.52 23.74 0 3.66 1.09 12.8 8 12.8s9.1-8.13 9.1-14c0-4.66-4.08-12.2-5.79-23.1-1 .44-2.14.7-3.45.7-.47 0-.9-.05-1.32-.13"/><path d="m387.7 261.5c12 1.92 96.1 15.93 102.2 16.9 3.47.55 6.31 2.84 6.31 3.79s-3.71 4.5-3.71 10.73c0 4.76.74 12.26 6.26 13.29.41.08.85.13 1.32.13 1.31 0 2.45-.25 3.45-.7 4.14-1.83 5.78-6.99 5.78-11.69 0-10.97-5.7-8.81-4.33-19.2.38-2.88 5.92-40.54 5.92-40.54-4.48 2.08-5.67 9.82-15.48 7.94-6.67-1.28-83.8-15.51-98.9-17.91s-25.36 5.46-27.3 15.54 6.48 19.79 18.48 21.71m9-29.75c10.41 1.71 104.1 18.1 104.1 18.1l-1.92 12.64s-96.9-8.48-107.1-9.12c-10.24-.64-14.88-4.16-14.88-10.72s8.16-12.8 19.84-10.88"/><path d="m532.7 318.2c.05 1.08.08 1.67-.51 3-1.12 2.48-3.07 5.57-6 6.27l1.75 7.48c3.33-.78 7.99-3.25 11.3-10.6 1.36-3 1.25-5.1 1.18-6.54-.06-1.2-.09-1.7.93-3.31.73-1.14.93-1.19 1.8-1.42 1.97-.52 4.23-1.37 6.18-5 2.22-4.14 1.5-7.58.98-10.1-.28-1.38-.51-2.46-.33-3.59.27-1.72 1.48-3.04 3.79-5.41 1.25-1.29 2.67-2.75 4.11-4.58l-6-4.75c-1.18 1.51-2.4 2.76-3.58 3.97-2.56 2.63-5.2 5.35-5.87 9.56-.4 2.51.04 4.64.4 6.35.46 2.24.63 3.29-.23 4.9-.52.98-.54.98-1.36 1.2-1.93.51-4.18 1.33-6.34 4.74-2.15 3.39-2.23 5.63-2.12 7.81"/><path d="m519.6 331.2c3.68-3.24 4.82-4.41 6.5-9.81 1.09-3.51.84-5.83.64-7.69-.16-1.48-.27-2.55.23-4.46.26-.98.35-1.02 1.42-1.6 1.64-.88 4.38-2.35 5.59-7.11 1.11-4.37-.15-7.12-1.07-9.13-.72-1.56-1.15-2.51-.77-4.56l-7.56-1.38c-.8 4.43.44 7.15 1.35 9.13.72 1.57 1.05 2.29.61 4-.38 1.49-.65 1.63-1.78 2.24-1.53.82-4.1 2.2-5.22 6.39-.88 3.29-.64 5.49-.45 7.26.17 1.56.28 2.6-.34 4.58-1.11 3.57-1.23 3.68-4.24 6.32l-1.79 1.59 5.14 5.71 1.72-1.53"/><path d="m462.7 305.6c.87 3.85 3.61 5.54 5.61 6.78 1.82 1.13 2.44 1.59 2.69 2.8.4 1.88.22 2.42-.05 3.22-.54 1.6-.95 3.28-.13 6.18 1.44 5.1 2.98 6.76 8.1 11.87l5.43-5.43c-4.85-4.85-5.25-5.41-6.15-8.55-.24-.84-.22-.9.02-1.63.56-1.68 1.05-3.63.28-7.26-.96-4.52-4.1-6.45-6.17-7.73-1.57-.97-2-1.32-2.15-1.93-.27-1.22.02-2.15.67-3.98.78-2.22 1.76-4.98 1.3-8.93l-7.63.9c.26 2.17-.26 3.63-.91 5.47-.75 2.13-1.69 4.8-.92 8.23"/><path d="m457.5 303.6c0-1.37-.21-2.96-.85-4.86-1.78-5.23-3.63-7.25-5.77-9.58l-2.15-2.44-5.91 4.9 2.41 2.73c1.93 2.1 2.9 3.16 4.16 6.86.66 1.95.46 2.97.17 4.51-.38 1.98-.91 4.69.79 8.52 1.88 4.22 4.69 5.26 6.56 5.95 1.24.46 1.46.54 1.9 1.47.74 1.6.65 2.06.47 2.89-.23 1.1-.62 2.94.45 5.35 1.37 3.12 5.24 10.48 11.51 11.4l1.12-7.6c-1.54-.23-4-3.25-5.6-6.89l-.06-.18.1-.51c.16-.76.3-1.57.3-2.49 0-1.39-.31-3.04-1.31-5.21-1.77-3.81-4.44-4.8-6.21-5.45-1.32-.49-1.63-.6-2.19-1.86-.38-.86-.52-1.47-.52-2.09 0-.55.11-1.1.25-1.85.19-.99.42-2.16.42-3.58"/><path d="m507.7 348.4c-7.53 6.09-24.39 6.56-33.3-1.56l-1.88-1.71-2.31 1.07c-3.43 1.59-8 1.72-11.67 1.82-4.67.13-8.36.24-10.25 3.19-1.37 2.14-1.24 5.1.37 7.99.26.48.57.96.91 1.44h16.75c-6.23 0-9.5-2.94-10.71-4.8.98-.07 2.15-.12 3.15-.14 3.68-.11 8.11-.31 12.31-1.69 4.58 3.49 10.17 5.49 15.87 6.25 4.13-4.86 11.1-6.64 15.18-6.64v5.75c3.18-.83 6.11-2.06 8.56-3.65 4.08 1.76 9.8 5.23 13.78 7.64 3.46 2.1 5.17 3.13 6.31 3.56 3.48 1.34 18 2.53 26.99 2.53v-7.68c-10.16 0-22.32-1.34-24.2-2.02-.61-.25-3.09-1.75-5.07-2.96-5.17-3.14-12.25-7.44-17.1-9.1l-1.99-.66-1.63 1.32"/><path d="m466.3 360.6h-28.65c-12.9 0-14.28 7.9-14.28 10.67 0 .77.09 1.75.36 2.8h11.64c-3.42 0-4.51-1.34-4.51-2.77s1.31-3 6.79-3h45.99c.25-3.12 1.36-5.66 2.96-7.68h-20.3"/><path d="m491.4 368.3h1.1l22.96-5.36-13.1-2.32h-.24v.66c-.1 0-9.61.43-10.73 7"/><path d="m419.3 374.1c-7.4 0-12.38 5.81-12.38 11.24 0 5.18 4.6 11.43 12.76 11.43h2.39c.55-2.95 2.9-7.15 11.65-7.63v-.05h-14c-2.88 0-5-2.82-5.08-3.76 0-1 1.4-3.55 4.7-3.55h49.89v-7.68h-49.89"/><path d="m422 396.7c-.12.63-.15 1.19-.15 1.66 0 6.3 5.55 11.43 15 11.43h.18c1.44-4.26 6.69-7.26 13.67-7.64v-.05h-13.85c-4.76 0-7.36-2.48-7.36-3.75 0-1.09 2.94-1.66 5.84-1.66h33.77v-7.68h-33.77c-.6 0-1.16.02-1.71.05-8.75.48-11.1 4.68-11.65 7.63"/><path d="m437.1 409.8c-.26.77-.41 1.58-.41 2.42 0 4.82 4.32 10 13.96 10.85 6.98.58 37.1 1.53 42.62 1.53 4.5 0 23.36-.61 33.52-3.57 3-.88 5.55-2.06 8-3.2 5.28-2.46 10.74-5 22.6-5v-7.68c-13.57 0-20.1 3.04-25.84 5.71-2.29 1.06-4.45 2.07-6.91 2.79-8.53 2.49-25.98 3.26-31.37 3.26-5.1 0-35.2-.94-41.99-1.5-4.88-.41-6.91-2.28-6.91-3.19.17-.47 2.52-2.42 7.92-2.42h30.92l-7.4-7.68h-23.52c-.51 0-1.02.02-1.52.05-6.99.38-12.23 3.37-13.67 7.63"/><path d="m486.9 360.2c-.11.13-.22.25-.32.38-1.6 2.02-2.71 4.56-2.96 7.68-.03.43-.06.86-.06 1.31 0 7.14 3.76 19.6 28.96 22.79l.96-7.62c-8.31-1.05-22.2-4.42-22.2-15.17 0-.46.04-.9.11-1.31 1.13-6.59 10.63-7 10.73-7v-7.68c-4.07 0-11.1 1.78-15.18 6.63"/></svg>