<?xml version="1.0" encoding="UTF-8" standalone="no"?>
<!-- Created with Inkscape (http://www.inkscape.org/) -->
<svg
   xmlns:svg="http://www.w3.org/2000/svg"
   xmlns="http://www.w3.org/2000/svg"
   version="1.0"
   width="579pt"
   height="579pt"
   viewBox="0 0 579 579">
  <path
     d="M 25.301165,289.67172 289.32987,553.70044 553.40261,289.6277 C 465.35022,201.6757 377.47182,113.54942 289.3739,25.643024 L 25.301165,289.67172 z"
     style="fill:#ffffff;stroke:none" />
  <path
     d="M 147.65941,148.01233 6,289.67173 147.66886,431.34059 289.32827,573 431.01602,431.31224 572.70378,289.62449 431.06327,147.98398 C 353.16571,70.086424 289.40386,6.34347 289.37551,6.34347 c -0.0284,0 -63.79965,63.752403 -141.7161,141.66886 z M 408.62189,170.42535 527.82103,289.62449 408.5652,408.88032 289.31882,528.1267 170.12913,408.87087 50.939444,289.61504 170.13858,170.41591 C 235.69574,104.85874 289.34716,51.22622 289.37551,51.22622 c 0.0283,0 53.68922,53.64197 119.24638,119.19913 z"
     style="fill:#ff0000;stroke:none" />
  <path
     d="m 393.5,171.5625 c -0.0875,0.0111 -0.14788,0.10408 -0.21875,0.28125 -0.0591,0.17718 -11.33782,32.32626 -25.0625,71.46875 -13.72467,39.14249 -24.984,71.22219 -25.03125,71.28125 -0.14174,0.14173 -1.1368,-0.21728 -1.125,-0.40625 0.0118,-0.12993 29.32971,-91.35309 29.625,-92.15625 0.0354,-0.0945 -0.8415,-0.68699 -2.625,-1.75 -2.65754,-1.58271 -2.96875,-1.75148 -2.96875,-1.5625 0,0.16536 -24.4215,95.359 -24.46875,95.40625 -0.0236,0.0354 -0.68921,-0.11934 -1.46875,-0.34375 -1.86619,-0.53151 -5.0386,-1.17766 -7.09375,-1.4375 -2.3032,-0.28348 -7.54622,-0.29529 -9.625,0 -9.70885,1.35829 -17.57516,5.37438 -24.4375,12.4375 -4.81899,4.96073 -8.65598,11.39408 -10.6875,17.9375 -0.24804,0.77955 -0.484,1.45275 -0.53125,1.5 -0.0473,0.0472 -3.77699,-2.68029 -8.3125,-6.09375 -4.53553,-3.41345 -8.28888,-6.19169 -8.3125,-6.15625 -0.0236,0.0236 0.43306,0.95986 1,2.09375 l 1.03125,2.0625 7.125,4.78125 c 6.88596,4.6182 7.0903,4.78665 7.03125,5.09375 -0.0591,0.29528 0.17196,0.58091 2.15625,2.71875 1.21656,1.32286 2.55536,2.75047 2.96875,3.1875 l 0.78125,0.78125 2.09375,-0.125 2.09375,-0.125 3.9375,2.625 c 2.16146,1.42916 3.79454,2.47786 3.59375,2.3125 -0.18899,-0.16535 -1.75612,-1.36883 -3.46875,-2.65625 -1.70082,-1.27561 -3.02017,-2.33194 -2.9375,-2.34375 0.0827,-0.0118 2.8144,-0.16659 6.0625,-0.34375 l 5.90625,-0.3125 8.5,4.28125 c 4.70089,2.33863 8.58956,4.25 8.625,4.25 0.0354,0 2.17096,-2.5457 4.78125,-5.6875 2.61029,-3.12997 4.82358,-5.78051 4.90625,-5.875 0.12993,-0.15355 -0.21233,-1.04715 -2.03125,-5.5 -1.19294,-2.91737 -2.14863,-5.32013 -2.125,-5.34375 0.0236,-0.0118 2.99894,0.29773 6.625,0.6875 3.62605,0.38977 6.60901,0.69169 6.65625,0.65625 0.0354,-0.0472 0.51156,-1.85035 1.03125,-4 l 0.96875,-3.9375 2.9375,-0.0312 c 1.61815,-0.0118 3.39,0.0153 3.96875,0.0625 l 1.0625,0.0937 -10.0625,11 c -5.55129,6.03555 -10.18257,11.11589 -10.3125,11.28125 -0.44882,0.5315 3.55174,-3.47669 12.90625,-12.9375 l 9.21875,-9.34375 3.4375,-0.0625 3.40625,-0.0625 -0.59375,-0.875 c -0.34253,-0.48426 -0.98868,-1.33169 -1.4375,-1.875 -0.44882,-0.54331 -0.79306,-1.01525 -0.78125,-1.0625 0.0236,-0.0473 1.30829,-1.38604 2.84375,-2.96875 l 2.78125,-2.84375 0.3125,0.65625 c 0.16535,0.37796 0.28125,0.72219 0.28125,0.78125 0,0.18897 0.15469,0.13021 4.84375,-2.03125 2.42131,-1.11026 4.45275,-1.9653 4.5,-1.90625 0.0473,0.0473 0.49213,1.56025 1,3.34375 0.49608,1.7835 0.95275,3.2965 1,3.34375 0.0827,0.0945 14.36785,-11.44144 14.78125,-11.9375 0.0945,-0.12992 1.87052,-3.36065 3.9375,-7.1875 2.06696,-3.83865 3.89715,-7.18529 4.0625,-7.46875 0.16536,-0.28348 0.23892,-0.52362 0.15625,-0.5 -0.0709,0.0236 -3.0115,2.45761 -6.53125,5.375 l -6.40625,5.28125 -4.59375,0.125 c -2.53941,0.0591 -4.79921,0.0861 -5,0.0625 -0.34252,-0.0354 2.19631,-2.61905 42.96875,-43.78125 23.82329,-24.04771 43.34375,-43.76526 43.34375,-43.8125 0,-0.0472 -1.1299,-1.2042 -2.5,-2.5625 -2.33862,-2.33862 -2.49852,-2.4508 -2.6875,-2.25 -0.1063,0.1063 -19.9245,21.68109 -44.03125,47.9375 l -43.8125,47.75 -3.46875,2.4375 c -1.90161,1.33466 -3.52287,2.49164 -3.59375,2.5625 -0.0827,0.0827 0.01,0.38581 0.28125,1 0.33071,0.77954 0.36049,0.91659 0.21875,1.09375 -0.12992,0.16536 -4.68846,5.19191 -5.5625,6.125 -0.2126,0.22442 -0.22242,0.2109 -1.25,-0.78125 -1.9961,-1.97248 -3.8843,-3.4916 -6.1875,-5.0625 l -1.125,-0.78125 L 374.5,282.125 c 17.12631,-29.42181 21.68061,-37.3312 21.5625,-37.4375 -0.0709,-0.0827 -1.19314,-0.78296 -2.46875,-1.5625 l -2.34375,-1.4375 -0.40625,0.71875 c -0.2126,0.40157 -9.01505,17.78995 -19.5625,38.625 -10.87816,21.5201 -19.21801,37.875 -19.3125,37.875 -0.11811,0 -0.10285,-0.14074 0.0625,-0.625 0.12992,-0.33071 11.65229,-32.46456 25.625,-71.40625 13.98452,-38.94169 25.39863,-70.83537 25.375,-70.90625 -0.0472,-0.1063 -8.53984,-4.07552 -9.4375,-4.40625 -0.0354,-0.0118 -0.0646,-0.004 -0.0937,0 z m -43.09375,54.53125 -1.21875,3.03125 -1.1875,3.0625 -2.3125,-0.90625 c -1.28743,-0.50789 -2.37081,-0.89099 -2.40625,-0.84375 -0.0354,0.0472 -0.58094,2.60476 -1.21875,5.6875 -0.62599,3.08274 -1.15207,5.7062 -1.1875,5.8125 -0.0354,0.14174 0.4852,0.42665 2.375,1.3125 1.3583,0.6378 2.50344,1.20275 2.5625,1.25 0.0472,0.0472 0.62744,2.13282 1.3125,4.625 0.67324,2.48036 1.25762,4.53889 1.28125,4.5625 0.0236,0.0236 0.98694,-1.34986 2.15625,-3.0625 2.22053,-3.24809 2.21467,-3.2373 9.21875,-10.84375 l 0.375,-0.40625 -2.03125,-6.5625 -2.03125,-6.5625 -0.875,-0.0625 c -0.48426,-0.0472 -1.75711,-0.0819 -2.84375,-0.0937 l -1.96875,0 z M 511.46875,255.25 c -0.0472,0 -0.12082,0.13951 -0.15625,0.28125 -0.36615,1.21655 -4.10901,12.7965 -4.15625,12.84375 -0.0236,0.0354 -2.55407,0.17077 -5.625,0.3125 l -5.59375,0.25 -1.59375,1.1875 c -0.87403,0.67324 -1.60138,1.2382 -1.625,1.25 -0.0354,0.0354 -1.52362,9.55832 -1.5,9.59375 0.0472,0.0354 8.71456,5 8.75,5 0.0236,0 1.59839,-1.6754 3.5,-3.71875 1.91342,-2.04334 3.49581,-3.73056 3.53125,-3.71875 0.0354,0 3.16553,2.13209 6.96875,4.71875 l 6.90625,4.6875 0.0312,-1.71875 c 0.0118,-0.9449 0.008,-4.7989 -0.0625,-8.53125 l -0.125,-6.78125 -4.59375,-7.84375 c -2.52761,-4.2993 -4.609,-7.8125 -4.65625,-7.8125 z m -117.53125,4.78125 -0.21875,0.28125 c -0.11811,0.15355 -0.82603,1.17517 -1.59375,2.25 l -1.375,1.9375 -0.875,4.375 c -0.47245,2.40949 -0.875,4.49509 -0.875,4.625 0.0118,0.16536 1.00316,1.09913 3.09375,2.90625 1.70083,1.4646 3.11662,2.65625 3.1875,2.65625 0.0591,0 1.12719,-1.21109 2.34375,-2.6875 l 2.21875,-2.71875 0.5,-2.4375 c 0.27166,-1.33468 0.55413,-2.73523 0.625,-3.125 l 0.125,-0.71875 -1.34375,-3.625 c -0.7323,-1.98429 -1.37081,-3.64025 -1.40625,-3.6875 -0.0473,-0.0472 -0.54624,0.44832 -1.125,1.0625 l -1.03125,1.125 -1.125,-1.125 -1.125,-1.09375 z M 466.15625,266.5 c -0.0591,0 -26.09855,18.33224 -57.90625,40.75 -31.8077,22.42956 -57.83612,40.78888 -57.8125,40.8125 0.0118,0.0236 26.09438,-16.11477 57.9375,-35.875 l 57.875,-35.9375 0,-4.90625 c 0,-2.68116 -0.0465,-4.85556 -0.0937,-4.84375 z M 454.71875,298.375 452.375,301 450,303.59375 448.875,306.625 c -0.62599,1.66539 -1.13681,3.03888 -1.125,3.0625 0.0472,0.0473 20.64026,2.516 20.6875,2.46875 0.0236,-0.0118 -3.06415,-3.13846 -6.84375,-6.90625 l -6.875,-6.875 z m 94.96875,1.8125 c -0.0591,-0.0118 -45.92855,11.84716 -101.9375,26.375 -56.00895,14.52784 -101.83612,26.44512 -101.8125,26.46875 0.0354,0.0354 206.54233,-46.74164 206.625,-46.8125 0.0709,-0.0473 -2.78051,-6.00764 -2.875,-6.03125 z m -120,14 c -0.0591,0.0118 -15.32297,7.20063 -33.9375,16 -18.61453,8.79939 -33.93676,16.05414 -34.03125,16.125 -0.12993,0.0945 -0.0876,0.10211 0.125,0.0312 0.4134,-0.14174 68.4257,-26.38263 68.4375,-26.40625 0.0118,0 -0.077,-1.2923 -0.21875,-2.875 -0.14172,-1.73626 -0.29232,-2.875 -0.375,-2.875 z m 147.5625,7.09375 c -0.15354,0.0118 -50.48012,8.55124 -111.875,18.96875 -61.38307,10.40571 -111.77214,18.9375 -111.9375,18.9375 -0.20079,0.0118 -0.71554,-0.34201 -1.625,-1.0625 l -1.375,-1.09375 -0.0625,4.53125 -0.0625,4.53125 -3.53125,2.40625 c -1.94886,1.31105 -3.60482,2.36319 -3.6875,2.375 -0.0827,0 -1.57625,-0.998 -3.3125,-2.25 -4.60639,-3.33078 -4.67504,-3.3197 -0.28125,0.0937 1.65358,1.28744 3.07775,2.359 3.125,2.40625 0.11811,0.1063 -5.55339,3.93406 -5.71875,3.875 -0.0827,-0.0236 -14.01986,-11.89856 -17.46875,-14.875 l -0.78125,-0.6875 -6.46875,5.59375 c -3.55517,3.08274 -6.51525,5.625 -6.5625,5.625 -0.0591,0 -3.71941,-0.95569 -8.125,-2.125 l -8,-2.125 2.25,0.0625 c 1.24018,0.0354 3.11267,0.0583 4.1875,0.0937 1.85436,0.0473 -3.43099,-0.34841 -9.75,-0.75 -1.16931,-0.0827 -7.50726,-0.5123 -14.0625,-0.9375 l -11.9375,-0.78125 -0.0312,-0.34375 c -0.0709,-0.40157 -0.0231,-0.38559 -1.0625,-0.0312 -0.74411,0.24804 -0.85306,0.23549 -3.15625,0.0937 -1.29924,-0.0709 -2.64566,-0.15208 -3,-0.1875 l -0.65625,-0.0937 -0.5625,-1.03125 -0.5625,-1 -4.03125,-0.21875 c -2.22051,-0.11811 -4.32554,-0.1875 -4.65625,-0.1875 l -0.59375,0 -0.53125,0.84375 -0.5,0.875 L 240.25,362.75 c -0.33073,-0.0118 -12.69288,-0.80091 -27.46875,-1.78125 -14.77588,-0.96853 -27.06446,-1.76181 -27.3125,-1.75 l -0.4375,0.0312 1.375,1.46875 c 1.19294,1.29924 1.4151,1.49581 1.78125,1.53125 0.23623,0.0236 11.92518,0.49556 25.96875,1.0625 14.04358,0.56694 25.58956,1.05831 25.625,1.09375 0.0354,0.0354 -0.52951,1.02581 -1.25,2.21875 -0.70868,1.18113 -1.2778,2.22219 -1.21875,2.28125 0.0472,0.0472 1.76154,1.26596 3.78125,2.71875 l 3.65625,2.65625 4.03125,0.65625 c 2.2087,0.37795 4.10481,0.66044 4.1875,0.625 0.0827,-0.0236 0.68995,-0.95225 1.375,-2.0625 l 1.25,-2.03125 2.5625,0 2.5625,0 0,-0.4375 c 0,-0.24804 -0.0888,-1.65277 -0.21875,-3.09375 -0.12993,-1.45279 -0.22294,-2.65207 -0.1875,-2.6875 0.0709,-0.0709 25.50664,0.90551 26.15625,1 0.3071,0.0473 0.375,0.0839 0.375,0.34375 0,0.43703 0.6213,3.18254 1.09375,4.8125 0.40158,1.3701 0.40429,1.37845 0.15625,1.4375 -0.12991,0.0236 -31.42816,3.6104 -69.53125,7.96875 -38.10309,4.37016 -69.26944,7.96875 -69.28125,7.96875 -0.0354,0.0236 -0.28544,3.05833 -0.25,3.09375 0.0236,0.0118 31.31005,-4.21349 69.53125,-9.375 38.2212,-5.16152 69.5812,-9.375 69.6875,-9.375 0.12993,0 0.29159,0.25392 0.46875,0.75 0.15355,0.41339 0.50196,1.25663 0.75,1.90625 0.24804,0.6378 0.42988,1.1757 0.40625,1.1875 -0.0236,0.0118 -23.41678,5.19279 -52,11.5 -28.58322,6.30721 -52.05759,11.5347 -52.1875,11.59375 -0.2008,0.0827 -0.32209,0.38753 -0.59375,1.78125 -0.18897,0.92127 -0.28544,1.71456 -0.25,1.75 0.0591,0.0473 104.77755,-25.74853 105.25,-25.9375 0.0709,-0.0236 0.29921,0.30535 0.5,0.71875 0.25985,0.51969 0.31325,0.77706 0.21875,0.8125 -0.0827,0.0236 -7.97176,2.15571 -17.5625,4.71875 l -17.46875,4.625 -0.21875,1.78125 c -0.12992,0.98032 -0.23056,1.80069 -0.21875,1.8125 0.0118,0.0118 8.16049,-2.65397 18.09375,-5.9375 18.11845,-5.9765 18.23819,-6.01551 18.25,-5.53125 0,0.0709 -12.72584,6.99664 -28.28125,15.40625 l -28.3125,15.28125 0.0937,1.125 c 0.0472,0.61419 0.0778,1.31446 0.125,1.5625 l 0.0937,0.4375 L 263.5,397.9375 c 15.46092,-9.09466 28.2062,-16.609 28.3125,-16.65625 0.15355,-0.0945 0.37671,0.19313 1.15625,1.46875 0.88585,1.46459 2.08413,3.17149 3.3125,4.71875 0.47245,0.61419 0.50149,0.70202 0.3125,0.84375 -0.1063,0.0709 -14.99892,11.96109 -33.09375,26.40625 L 230.625,441 l 2.3125,2.28125 c 1.28743,1.252 2.43676,2.31595 2.53125,2.375 0.14174,0.0827 4.53785,-3.92665 19.65625,-17.78125 10.72461,-9.83876 19.50763,-17.85555 19.53125,-17.84375 0.0236,0.0236 -0.14296,0.37966 -0.34375,0.78125 -0.20079,0.38978 -0.34375,0.75345 -0.34375,0.8125 0,0.0827 3.24409,3.7517 4,4.53125 0.20079,0.20079 0.30656,0.17201 2.5625,-0.84375 l 2.34375,-1.0625 1.1875,1.1875 1.1875,1.15625 2.34375,-1.40625 2.375,-1.4375 0.90625,-3.03125 c 0.50789,-1.6772 0.89444,-3.12426 0.90625,-3.21875 0,-0.1063 -0.89244,-0.7399 -2.15625,-1.53125 l -2.125,-1.34375 -3.4375,-0.0625 -3.40625,-0.0625 8.40625,-7.71875 c 4.6182,-4.22843 8.41388,-7.6875 8.4375,-7.6875 0.0118,0 0.95988,0.90918 2.09375,2.03125 1.13388,1.12206 2.60037,2.48031 3.25,3 7.8781,6.30721 16.83076,9.36541 26.46875,9.09375 7.571,-0.2126 14.30524,-2.35006 20.71875,-6.53125 2.64573,-1.72444 4.30925,-3.07525 6.71875,-5.4375 l 1.5,-1.4375 22.46875,18.09375 c 12.37819,9.9687 22.50764,18.10556 22.53125,18.09375 0.0118,-0.0236 -0.57602,-1.42419 -1.34375,-3.125 l -1.375,-3.09375 -20.875,-15.3125 -20.875,-15.28125 0.40625,-0.5 c 0.22442,-0.25984 0.82824,-1.01844 1.3125,-1.65625 0.49608,-0.62599 0.95275,-1.13681 1,-1.125 0.0591,0.0236 12.65719,9.85533 28,21.84375 15.34281,11.98841 28.0839,21.93601 28.34375,22.125 l 0.46875,0.34375 1.34375,-1.34375 c 0.74411,-0.74411 1.35556,-1.39025 1.34375,-1.4375 -0.0236,-0.0354 -13.16726,-9.57704 -29.21875,-21.1875 -16.03969,-11.61045 -29.2687,-21.17495 -29.375,-21.28125 -0.18897,-0.17717 -0.1538,-0.26893 0.53125,-1.34375 0.46064,-0.72049 0.78051,-1.12919 0.875,-1.09375 0.0827,0.0354 12.0076,7.30545 26.5,16.1875 14.48059,8.87025 26.37082,16.08613 26.40625,16.0625 0.0236,-0.0354 -0.60307,-1.38186 -1.40625,-3 l -1.46875,-2.9375 -24.8125,-13.625 -24.8125,-13.625 0.84375,-1.65625 c 0.47245,-0.90946 1.05684,-2.06643 1.28125,-2.5625 l 0.40625,-0.90625 15.375,3.96875 c 8.45686,2.18509 15.39025,4.01525 15.4375,4.0625 0.0945,0.0945 -1.08464,1.75 -1.25,1.75 -0.0591,0 -2.14883,-0.39493 -4.59375,-0.84375 -2.45674,-0.46064 -4.53051,-0.8125 -4.625,-0.8125 -0.12993,0 -0.64959,0.82772 -1.5,2.375 l -1.3125,2.40625 3.09375,2.28125 c 1.70081,1.2638 3.84816,2.8462 4.78125,3.53125 l 1.6875,1.25 12.5625,2.15625 c 6.89776,1.18113 12.57012,2.11736 12.59375,2.09375 0.0354,-0.0354 0.25689,-3.23372 0.375,-5.3125 l 0.0312,-0.71875 -2.0625,-2.375 -2.0625,-2.34375 -2.5625,-1.09375 c -1.41735,-0.60237 -2.54306,-1.1132 -2.53125,-1.125 0.0118,-0.0118 8.04041,2.03489 17.84375,4.5625 9.80334,2.5276 17.90551,4.59375 18,4.59375 0.0827,0 0.125,-0.0347 0.125,-0.0937 0,-0.0473 0.35604,-2.4618 0.78125,-5.34375 0.4252,-2.88195 0.76181,-5.22639 0.75,-5.25 -0.0236,-0.0118 -18.0734,-2.57351 -40.125,-5.65625 -22.03979,-3.08274 -40.10139,-5.63263 -40.125,-5.65625 -0.0236,-0.0236 0.21235,-0.84397 0.53125,-1.8125 0.33071,-0.96851 0.59375,-1.8312 0.59375,-1.9375 0,-0.12992 -0.86142,-0.47809 -3.09375,-1.28125 L 362.375,368.75 361.75,367.65625 c -0.34252,-0.57875 -0.59794,-1.08958 -0.5625,-1.125 0.0236,-0.0354 17.3655,0.77729 38.53125,1.78125 l 38.46875,1.8125 0.3125,0.3125 0.3125,0.34375 6.96875,0.46875 6.9375,0.46875 0.40625,-0.4375 0.40625,-0.4375 49.1875,2.34375 c 27.05957,1.27561 49.20694,2.29306 49.21875,2.28125 0.0236,-0.0236 -0.90919,-0.73154 -2.03125,-1.59375 l -2.03125,-1.59375 -46.34375,-1.4375 c -25.48868,-0.81498 -46.40551,-1.48819 -46.5,-1.5 -0.0945,-0.0236 1.3004,-1.70443 3.34375,-4.03125 1.93704,-2.19689 3.49238,-4.01944 3.46875,-4.03125 -0.0118,-0.0236 -5.58352,-2.49994 -12.375,-5.5 -6.79146,-3.00006 -12.359,-5.49583 -12.40625,-5.53125 -0.0472,-0.0236 -1.58731,1.38875 -3.40625,3.125 l -3.3125,3.15625 -4.6875,1.5625 c -2.56305,0.86223 -4.69513,1.58956 -4.71875,1.625 -0.0354,0.0236 0.42888,1.935 1.03125,4.25 0.60237,2.31501 1.03544,4.26526 1,4.3125 -0.0472,0.0354 -13.96472,-0.39419 -30.9375,-0.9375 -16.96095,-0.53151 -30.89025,-0.94931 -30.9375,-0.9375 -0.0472,0 -0.31791,-0.42963 -0.625,-0.9375 -0.53151,-0.87404 -0.65471,-1.00365 -3.84375,-3.53125 l -3.3125,-2.59375 0.625,-0.0937 c 0.34253,-0.0473 50.77393,-6.89181 112.0625,-15.21875 l 111.4375,-15.125 0.0625,-3.8125 0,-3.8125 -0.25,0 z m -314.375,18.375 c -0.004,0.0253 0.0135,0.0689 0.0312,0.125 0.0472,0.12993 0.25614,0.70669 0.46875,1.25 L 263.78125,342 282.25,350.90625 c 10.14586,4.88986 18.47639,8.85556 18.5,8.84375 0.0118,-0.0236 -8.22569,-4.43075 -18.3125,-9.78125 -10.07499,-5.3505 -18.61441,-9.87351 -18.96875,-10.0625 -0.43406,-0.24803 -0.58323,-0.32585 -0.59375,-0.25 z m -16.21875,10.8125 c -0.0354,0 -0.82454,0.67321 -1.78125,1.5 -0.95671,0.82679 -1.70349,1.52706 -1.65625,1.5625 0.11811,0.0945 55.05412,8.66462 55.125,8.59375 0.0472,-0.0354 -51.48671,-11.66806 -51.6875,-11.65625 z m 52.0625,11.6875 c -0.12991,-0.0118 -0.2035,0.0271 -0.15625,0.0625 0.0354,0.0354 0.13608,0.0354 0.21875,0 0.0945,-0.0354 0.0674,-0.0625 -0.0625,-0.0625 z m -45.6875,2.6875 0.8125,0.0625 c 0.43703,0.0472 0.96726,0.0819 1.15625,0.0937 0.29527,0 0.25861,0.0568 -0.34375,0.28125 -1.22837,0.47245 -1.17003,0.47245 -1.40625,0 l -0.21875,-0.4375 z m 181.625,1.5625 c 0.0709,0 0.63581,0.52606 1.25,1.1875 L 437,368.8125 l -2,-0.0937 c -1.11026,-0.0472 -3.28467,-0.10901 -4.84375,-0.15625 -1.55909,-0.0354 -2.75074,-0.12081 -2.65625,-0.15625 0.30709,-0.1063 7.03814,-1.98819 7.15625,-2 z m -136.3125,0.25 c -0.0281,0.0118 -0.0236,0.0448 0,0.0625 0.0354,0.0354 0.13608,0.0354 0.21875,0 0.0945,-0.0354 0.0362,-0.0625 -0.0937,-0.0625 -0.065,-0.006 -0.0969,-0.0118 -0.125,0 z m -90.03125,3.5625 c -0.0472,-0.0118 -1.70321,1.19929 -3.6875,2.6875 L 201.03125,375.5625 201,377 c -0.0354,1.40554 -0.0411,1.45275 0.21875,1.5 0.43701,0.0945 19.70964,1.84794 19.875,1.8125 0.11811,-0.0354 -12.54503,-10.0347 -12.78125,-10.09375 z M 232.28125,393.25 c 0,0.1063 7.22564,7.0625 7.34375,7.0625 0.0709,0 1.27434,-0.47613 2.65625,-1.03125 l 2.5,-1 0,-2.1875 0,-2.1875 -0.3125,0 c -0.4134,0 -10.53566,-0.55412 -11.46875,-0.625 -0.4134,-0.0354 -0.71875,-0.0549 -0.71875,-0.0312 z M 205.75,411.625 c -0.0354,0 -0.10139,0.0854 -0.125,0.15625 -0.0354,0.0827 -0.5962,1.97461 -1.28125,4.21875 l -1.25,4.09375 0.375,0.53125 c 2.04335,2.84651 7.11664,9.75763 7.1875,9.78125 0.0472,0.0118 0.28321,-0.55314 0.53125,-1.25 0.24804,-0.70867 0.76647,-2.16336 1.15625,-3.25 l 0.6875,-1.96875 0.4375,-0.0625 c 0.24804,-0.0354 1.25786,-0.10901 2.25,-0.15625 l 1.78125,-0.0625 1.40625,-1.53125 1.40625,-1.5 0.75,-2.28125 c 0.40159,-1.24018 0.67987,-2.25762 0.65625,-2.28125 -0.0709,-0.0709 -6.65133,-2.53125 -6.78125,-2.53125 -0.0709,0 -0.55043,0.5455 -1.09375,1.21875 -0.54331,0.68505 -1.07357,1.21113 -1.15625,1.1875 -0.0709,-0.0236 -1.64563,-0.98694 -3.5,-2.15625 -1.85436,-1.18112 -3.40208,-2.15625 -3.4375,-2.15625 z"
     transform="scale(0.8,0.8)"
     style="fill:#000000;stroke:none" />
</svg>
