<?xml version="1.0"?>
<svg xmlns="http://www.w3.org/2000/svg" height="724" width="724" viewBox="0 0 735 735">
<path d="m367.5 727.4l360-360-360-360-360 360z" fill="#f00"/>
<path d="m367.5 670.3-302.8-302.8l302.8-302.8 302.8 302.8z" fill="#fff"/>
<path d="m361.6 364.2c8.23 0 5.45-3.33 12.48-3.33 5.73 0 3.79 3.24 11.56 3.24 7.21 0 8.97-5.45 8.97-7.67 0-3.42-3.88-5.62-5.64-10.26-1.76-4.62-5.18-21.72-15.62-21.72-3.84 0-6.1 1.57-8.97 4.99-4.71 5.55-5.09 14.87-8 18.49-2.87 3.51-3.98 7.28-3.98 9.25 0 2.13 1.02 7 9.25 7m-80.55 58.51-7.9 3.74c-7.91 3.81-17.78 11.77-19.83 28.1-.34 2.68-6.39 9.79-12.59 9.79-3.81 0-8.32-2.52-8.94-6.27-1.08-6.44-5.95-29.55-6.16-30.53-.6-2.85-3.4-4.68-6.26-4.07s-4.68 3.4-4.07 6.26c.001.06.76 3.65.76 3.65-9.18-4.38-9.56-5.17-9.56-8.33 0-3.9 9-8.87 16.1-8.87 5.97 0 10.54 1.71 14.97 3.36 4 1.5 8.13 3.04 12.8 3.04 6.72 0 8.64-.68 11.73-2.35l2.6-1.27c4.07-1.71 35.64-16.78 49.55-23.43 1.94 2.78 4.26 5.57 6.94 8.25m-3.3-52c12.29 7.63 12.1 7.29 12.16 12.1-.15 1.3-.2 3.44-.2 7.41 0 13.1 25.5 24.1 41.52 24.1 17.77 0 41.3-12 41.3-24.49v-6.74c0-5.32.56-5.81 10.83-11.84v24.99c0 6.99-9.58 21.91-26.89 30.62l-.56.28c-8.38 4.21-18.8 9-23.1 9-3.97 0-17.41-3.92-28.1-9.31-17.32-8.7-26.89-23.63-26.89-30.62zm-108-40.9c-.02.0010-.04.03-.07.04.02-.0010.04-.03.07-.04m310.9-9.9c2.33 0 3.34.76 3.9 1.34 3.4 3.51 3.07 13.78 2.84 21.28l-.13 5.95c-.06 2.92 2.25 5.21 5.16 5.28 2.91.06 5.33-2.36 5.4-5.28l.05-2.13c.3.81.44 1.5.44 1.95v10.16c0 2.88-.84 6.32-4.82 6.32-3.27 0-7.46-2.04-11.5-4-4.66-2.27-9.1-4.42-13.57-4.42l-.76-.03c-2.63-.13-8.11-.38-15.83 3.23l-.15.07-57.75 29.3v-14.68c8.54-3.9 41.3-18.92 49.4-23.1 9.13-4.7 16.1-14.75 20.2-20.76l1.59-2.27c2.75-3.78 8.47-8.19 15.56-8.19zm-266.4 39.7-.08-.03c-7.72-3.62-13.2-3.36-15.83-3.23l-.76.03c-4.5 0-8.91 2.15-13.57 4.42-4 1.97-8.22 4-11.5 4-3.99 0-4.82-3.43-4.82-6.32v-10.16c0-.45.14-1.14.44-1.95l.05 2.12c.06 2.92 2.48 5.34 5.4 5.28 2.91-.06 5.23-2.36 5.16-5.28l-.13-5.95c-.24-7.5-.56-17.77 2.83-21.28.56-.57 1.57-1.34 3.9-1.34 7.09 0 12.82 4.41 15.57 8.19l1.59 2.27c4.14 6 11.1 16.1 20.2 20.76 7.08 3.65 32.3 15.23 44.58 20.87v14.45zm117.1-164.8c29.36 0 43.62 12.25 61.7 28.68l9.58 8.59 3.57 3.1c11.48 9.95 22.33 19.35 22.33 24.92 0 6.9-2.41 13.78-5.68 20.2.38-2.35.4-3.9.4-6.89 0-11.37-3.14-16.27-14.75-28.41l-7.63 7.3c10.88 11.37 11.82 13.79 11.82 21.1 0 4.55 0 4.55-2.31 14.8l-3.06 13.74.35 1.25c.04.13 3.59 13.18 3.59 25.7 0 13.1-8 17.98-18.1 24.2l-3.18 1.96-10.89 6.56c-11.5 6.75-17.23 9.73-17.23 21.52v6.74c0 3.91-14.78 13.93-30.53 13.93-14.46 0-30.38-10-30.96-13.64 0-4.83.21-6.92.21-6.92 0-11.56-5.6-14.81-16.77-21.29-3.11-1.8-6.97-4.05-11.52-6.9l-3.18-1.96c-10.14-6.2-17.38-9.72-17.38-24.2 0-15.23 3.63-20.67 3.63-25.37s-5.07-23-5.07-25.87c0-.37.04-3.46.04-3.46 0-6.85.87-12.57 11.46-21.98.86-.76 2.17-3.09 1.12-4.38s-1.47-1.83-2.69-3.27c-.61-.72-1.72-1-2.79-1.01-1.07 0-2.11.28-2.58.7-12.53 11.13-15.1 19.56-15.1 29.94 0 0-.04 3.09-.04 3.55 0 2.82-.12 1.4 1.33 7.33-4.52-7.66-8.32-16.28-8.32-24.95 0-5.39 10.33-14.75 21.27-24.65l4.78-4.34c3.78-3.45 7.1-6.67 10.24-9.79 7.24-7.11 12.95-12.72 19.6-16.1 14.99-7.6 28.6-10.4 42.82-10.4m-62.3 210.5c-18.32 8.76-45.1 21.53-48.57 22.98l-3.52 1.71c-1.53.83-2 1.07-6.71 1.07-2.75 0-5.69-1.1-9.1-2.37-4.81-1.8-10.79-4-18.67-4-10.86 0-26.64 7.57-26.64 19.43 0 10.56 6.77 13.73 17.98 19l4.82 2.29c1.13 5.54 2.21 10.95 2.63 13.48 1.57 9.44 11.1 15.1 19.36 15.1 11.8 0 22.1-11.55 23.1-19 1.19-9.47 5.74-15.99 13.92-19.92l7.79-3.69 44.5-20.95c3.05 2.19 6.36 4.23 9.92 6 8.71 4.38 25.2 10.86 32.88 10.86 6.82 0 17-5.14 28.1-10.72 4.76-2.39 8.84-5 12.49-7.87l54.78 26.35c8.18 3.94 12.73 10.45 13.92 19.92.94 7.49 11.27 19 23.1 19 8.28 0 17.78-5.64 19.36-15.1.42-2.53 1.5-7.94 2.63-13.48l-.47.22.47-.22 4.83-2.29c11.21-5.27 17.98-8.45 17.98-19 0-11.86-15.77-19.43-26.64-19.43-7.88 0-13.86 2.24-18.67 4-3.4 1.27-6.34 2.37-9.1 2.37-4.71 0-5.18-.25-6.71-1.07l-3.52-1.71c-3.71-1.56-34.54-16.26-52.66-24.93.25-.76.46-1.51.63-2.25 12.41-6.28 62.8-31.81 63-31.91 5.34-2.49 8.64-2.34 10.83-2.24l1.26.04c2.06 0 5.56 1.7 8.94 3.35 4.88 2.38 10.42 5.08 16.1 5.08 9.1 0 15.38-6.94 15.38-16.88v-10.16c0-5.52-3.81-13.21-10.9-17.51-.39-6.56-1.77-12.71-5.82-16.89-2.93-3-6.79-4.55-11.48-4.55-11.1 0-19.69 6.48-24.1 12.54l-1.74 2.49c-3.35 4.85-9.57 13.88-16.34 17.36-4.87 2.51-19.21 9.18-31.45 14.82 7.95-5.8 14.75-13.59 14.75-27.7 0-8.82-1.51-17.6-2.67-23l1.9-2.82c7.61-10.99 18-26 18-42.93 0-10.39-10.9-19.83-25.98-32.9l-3.55-3.08-9.4-8.43c-18.2-16.54-35.3-32.2-68.78-32.2-15.72 0-31.3 4-47.59 12.28-8.11 4.11-14.65 10.54-22.2 17.98-3.11 3.05-6.32 6.21-9.96 9.53l-4.75 4.32c-14.36 13-24.74 22.4-24.74 32.48 0 16.89 10.42 31.94 18 42.93l1.35 2c-1.08 7.73-2.2 17.94-2.2 25.1 0 9.85 4.54 16.79 10.47 22.2-9.49-4.41-18.58-8.68-22.28-10.58-6.77-3.48-12.99-12.51-16.34-17.36l-1.74-2.49c-4.41-6.1-13.1-12.54-24.1-12.54-4.69 0-8.56 1.53-11.48 4.55-4.05 4.18-5.44 10.33-5.82 16.9.02-.0010.04-.02.07-.04-.02.0010-.04.02-.07.04-7.09 4.3-10.91 11.99-10.91 17.51v10.16c0 9.94 6.33 16.88 15.39 16.88 5.71 0 11.24-2.7 16.1-5.08 3.38-1.65 6.87-3.35 8.94-3.35l1.26-.04c2.19-.1 5.49-.26 10.83 2.24.19.09 40.2 20.38 57.73 29.2m120.8 14.4c10.77 5.15 48.79 23.32 53.2 25.2l2.6 1.27c3.08 1.67 5 2.35 11.73 2.35 4.66 0 8.8-1.55 12.8-3.04 4.42-1.65 9-3.36 14.97-3.36 7.1 0 16.1 4.97 16.1 8.87 0 3.16-.38 3.95-9.56 8.33.46-2.18.75-3.59.77-3.64.6-2.85-1.22-5.65-4.08-6.26-2.85-.6-5.65 1.22-6.25 4.07-.21.98-5.08 24.1-6.16 30.53-.63 3.75-5.13 6.26-8.94 6.26-6.2 0-12.25-7.11-12.59-9.79-2.05-16.36-11.91-24.32-19.82-28.1l-51-24.53c2.45-2.66 4.55-5.4 6.29-8.1m-13.8-73.1c17.6 0 25-22.1 25-27.79s-4.5-8.1-7.15-8.1h-33.48c-3.57 0-12.17 2.91-12.17 8.47 0 2.08 1.56 6.66 4.92 11.1 5.8 7.68 10.83 16.28 22.87 16.28m-87.49.04c12 0 17.1-8.6 22.87-16.28 3.36-4.45 4.92-9 4.92-11.1 0-5.56-8.6-8.47-12.17-8.47h-33.48c-2.65 0-7.14 2.38-7.14 8.1 0 5.69 7.41 27.79 25 27.79m-9.1 21.76h-7.84c3.76 1.73 6.61 3 7.84 3.59v-3.59m-10.4 36.7c.25 2.14.86 4.46 1.81 6.88z"/>
</svg>
