<svg xmlns="http://www.w3.org/2000/svg" viewBox="0 0 5790 5790"><path d="m253 2897 2640 2640 2641-2640c-880-880-1760-1762-2640-2640L253 2897" fill="#fff"/><path d="m60 2897 2833 2833 2834-2834L2894 63 60 2897zm5218 0L2893 5280 510 2896 2894 512l2384 2384" fill="red"/><path d="M2892 1428h-20a475 475 0 0 0-301 121 229 229 0 0 0-64 113c-3 11-3 14-3 35s0 25 3 37c2 14 195 1314 197 1336a213 213 0 0 0 239 182 213 213 0 0 0 180-182c3-27 195-1324 198-1337 2-12 2-16 2-35 0-23 0-31-5-47a234 234 0 0 0-106-138 496 496 0 0 0-291-85h-30zm20 2011h-12a302 302 0 0 0-243 141 338 338 0 0 0-55 232 343 343 0 0 0 114 218 310 310 0 0 0 199 74 316 316 0 0 0 258-141 341 341 0 0 0 54-234 390 390 0 0 0-32-110 317 317 0 0 0-281-180"/></svg>